<?xml version="1.0" standalone="no"?><!DOCTYPE svg PUBLIC "-//W3C//DTD SVG 1.1//EN" "http://www.w3.org/Graphics/SVG/1.1/DTD/svg11.dtd"><svg height="1247" node-id="1" sillyvg="true" template-height="1247" template-width="1779" version="1.1" viewBox="0 0 1779 1247" width="1779" xmlns="http://www.w3.org/2000/svg" xmlns:xlink="http://www.w3.org/1999/xlink"><defs node-id="65"></defs><g node-id="322"><path d="M 1134.80 184.80 L 1196.20 103.40 C 1197.71 101.36 1200.02 100.07 1202.55 99.86 C 1205.08 99.64 1207.58 100.54 1209.40 102.30 L 1278.10 167.60 C 1285.62 174.70 1297.45 174.48 1304.70 167.10 L 1323.00 148.20 C 1330.38 140.63 1333.99 130.17 1332.85 119.66 C 1331.71 109.15 1325.93 99.70 1317.10 93.90 L 1230.20 36.70 C 1222.36 31.56 1212.70 29.99 1203.64 32.40 C 1194.57 34.80 1186.96 40.95 1182.70 49.30 L 1118.30 176.00 Z" fill="#231815" fill-rule="nonzero" group-id="1" node-id="69" stroke="none" target-height="154.8092" target-width="215.69214" target-x="1118.3" target-y="29.990845"></path></g><g node-id="323"><path d="M 1136.80 193.80 L 1109.00 178.90 L 1176.50 46.20 C 1181.68 36.07 1190.91 28.62 1201.90 25.70 C 1212.89 22.81 1224.58 24.69 1234.10 30.90 L 1320.90 88.10 C 1331.45 95.04 1338.35 106.34 1339.70 118.90 C 1341.10 131.47 1336.81 144.02 1328.00 153.10 L 1309.60 171.90 C 1299.75 181.98 1283.63 182.29 1273.40 172.60 L 1204.70 107.30 C 1204.27 106.89 1203.68 106.71 1203.10 106.80 C 1202.53 106.81 1202.00 107.11 1201.70 107.60 Z M 1127.50 173.10 L 1132.90 175.90 L 1190.70 99.20 C 1193.38 95.58 1197.51 93.32 1202.00 93.00 C 1206.50 92.56 1210.97 94.13 1214.20 97.30 L 1282.90 162.60 C 1287.69 167.01 1295.12 166.83 1299.70 162.20 L 1318.00 143.40 C 1324.00 137.34 1326.91 128.87 1325.90 120.40 C 1325.02 111.96 1320.39 104.36 1313.30 99.70 L 1226.40 42.50 C 1220.19 38.46 1212.57 37.23 1205.40 39.10 C 1198.26 41.05 1192.27 45.91 1188.90 52.50 Z" fill="#231815" fill-rule="nonzero" group-id="2" node-id="74" stroke="none" target-height="170.99457" target-width="232.0979" target-x="1109" target-y="22.805481"></path></g><g node-id="324"><path d="M 1134.80 184.80 L 1196.20 103.40 C 1197.71 101.36 1200.02 100.07 1202.55 99.86 C 1205.08 99.64 1207.58 100.54 1209.40 102.30 L 1278.10 167.60 C 1285.62 174.70 1297.45 174.48 1304.70 167.10 L 1323.00 148.20 C 1330.38 140.63 1333.99 130.17 1332.85 119.66 C 1331.71 109.15 1325.93 99.70 1317.10 93.90 L 1230.20 36.70 C 1222.36 31.56 1212.70 29.99 1203.64 32.40 C 1194.57 34.80 1186.96 40.95 1182.70 49.30 L 1118.30 176.00 Z" fill="#805231" fill-rule="nonzero" group-id="3" node-id="79" stroke="none" target-height="154.8092" target-width="215.69214" target-x="1118.3" target-y="29.990845"></path></g><g node-id="325"><path d="M 1123.30 173.30 L 1079.10 81.40 C 1077.99 79.12 1075.95 77.42 1073.51 76.73 C 1071.06 76.04 1068.44 76.43 1066.30 77.80 L 986.20 128.30 C 977.44 133.86 965.83 131.32 960.20 122.60 L 946.00 100.60 C 940.24 91.72 938.74 80.74 941.92 70.64 C 945.09 60.54 952.60 52.39 962.40 48.40 L 1058.70 9.40 C 1067.40 5.86 1077.19 6.19 1085.63 10.32 C 1094.07 14.44 1100.35 21.96 1102.90 31.00 L 1141.30 167.90 Z" fill="#231815" fill-rule="nonzero" group-id="4" node-id="84" stroke="none" target-height="167.44049" target-width="202.557" target-x="938.74304" target-y="5.859558"></path></g><g node-id="326"><path d="M 1119.60 181.70 L 1072.80 84.40 C 1072.56 83.91 1072.12 83.55 1071.60 83.40 C 1071.06 83.23 1070.48 83.30 1070.00 83.60 L 989.90 134.20 C 977.91 141.68 962.15 138.21 954.40 126.40 L 940.10 104.40 C 933.23 93.78 931.47 80.65 935.30 68.60 C 939.07 56.51 948.06 46.75 959.80 42.00 L 1056.10 3.00 C 1066.63 -1.29 1078.49 -0.89 1088.70 4.10 C 1098.92 9.09 1106.49 18.24 1109.50 29.20 L 1149.80 172.60 Z M 1071.10 69.50 C 1072.55 69.50 1074.00 69.70 1075.40 70.10 C 1079.75 71.29 1083.37 74.32 1085.30 78.40 L 1127.00 165.00 L 1132.70 163.20 L 1096.20 32.90 C 1094.19 25.78 1089.25 19.85 1082.60 16.60 C 1075.94 13.30 1068.19 13.01 1061.30 15.80 L 965.00 54.90 C 957.13 58.09 951.08 64.61 948.50 72.70 C 945.89 80.82 947.10 89.68 951.80 96.80 L 966.10 118.90 C 969.71 124.31 976.95 125.91 982.50 122.50 L 1062.60 71.90 C 1065.15 70.31 1068.10 69.48 1071.10 69.50 Z" fill="#231815" fill-rule="nonzero" group-id="5" node-id="89" stroke="none" target-height="182.99475" target-width="218.3316" target-x="931.46844" target-y="-1.2947388"></path></g><g node-id="327"><path d="M 1123.30 173.30 L 1079.10 81.40 C 1077.99 79.12 1075.95 77.42 1073.51 76.73 C 1071.06 76.04 1068.44 76.43 1066.30 77.80 L 986.20 128.30 C 977.44 133.86 965.83 131.32 960.20 122.60 L 946.00 100.60 C 940.24 91.72 938.74 80.74 941.92 70.64 C 945.09 60.54 952.60 52.39 962.40 48.40 L 1058.70 9.40 C 1067.40 5.86 1077.19 6.19 1085.63 10.32 C 1094.07 14.44 1100.35 21.96 1102.90 31.00 L 1141.30 167.90 Z" fill="#805231" fill-rule="nonzero" group-id="6" node-id="94" stroke="none" target-height="167.44049" target-width="202.557" target-x="938.74304" target-y="5.859558"></path></g><g node-id="328"><path d="M 594.40 745.70 L 591.30 603.10 C 577.00 599.50 511.50 579.00 445.30 491.60 C 371.40 394.10 476.50 225.00 481.00 217.80 L 481.90 216.40 L 1109.30 166.30 L 1112.80 166.30 C 1135.13 166.28 1153.97 182.93 1156.70 205.10 L 1224.10 745.80 Z" fill="#231815" fill-rule="nonzero" group-id="7" node-id="99" stroke="none" target-height="579.5157" target-width="852.69995" target-x="371.40002" target-y="166.28436"></path></g><g node-id="329"><path d="M 1112.80 169.60 C 1133.39 169.64 1150.73 184.97 1153.30 205.40 L 1220.20 742.30 L 597.80 742.30 L 594.70 600.30 C 594.70 600.30 521.40 586.30 448.00 489.50 C 374.60 392.70 483.90 219.70 483.90 219.70 L 1109.50 169.70 L 1112.80 169.70 M 1112.80 162.80 L 1109.00 162.80 L 483.40 212.80 L 479.90 213.00 L 478.10 216.00 C 473.50 223.20 367.20 394.30 442.50 493.70 C 505.90 577.40 569.10 600.50 587.90 605.80 L 590.90 742.40 L 590.90 749.20 L 1228.10 749.20 L 1227.10 741.40 L 1160.20 204.50 C 1157.14 180.64 1136.85 162.76 1112.80 162.70 Z" fill="#231815" fill-rule="nonzero" group-id="8" node-id="104" stroke="none" target-height="586.5" target-width="860.89996" target-x="367.2" target-y="162.70001"></path></g><g node-id="330"><path d="M 597.80 742.30 L 1220.20 742.30 L 1153.30 205.40 C 1150.64 183.69 1131.29 167.97 1109.50 169.80 L 483.90 219.70 C 483.90 219.70 374.70 392.80 448.00 489.50 C 521.30 586.20 594.70 600.30 594.70 600.30 Z" fill="#e08a44" fill-rule="nonzero" group-id="9" node-id="109" stroke="none" target-height="574.3287" target-width="845.49994" target-x="374.7" target-y="167.97137"></path></g><g node-id="331"><path d="M 886.70 273.20 C 847.46 273.14 815.66 241.34 815.60 202.10 C 815.60 162.82 847.42 130.96 886.70 130.90 C 925.98 130.96 957.80 162.82 957.80 202.10 C 957.74 241.34 925.94 273.14 886.70 273.20 Z" fill="#231815" fill-rule="nonzero" group-id="10" node-id="114" stroke="none" target-height="142.29999" target-width="142.20007" target-x="815.6" target-y="130.90002"></path></g><g node-id="332"><path d="M 886.70 134.40 C 924.09 134.40 954.40 164.71 954.40 202.10 C 954.34 239.45 924.05 269.70 886.70 269.70 C 849.35 269.70 819.06 239.45 819.00 202.10 C 819.00 164.71 849.31 134.40 886.70 134.40 M 886.70 127.50 C 845.52 127.56 812.16 160.92 812.10 202.10 C 812.16 243.28 845.52 276.64 886.70 276.70 C 927.88 276.64 961.24 243.28 961.30 202.10 C 961.24 160.92 927.88 127.56 886.70 127.50 Z" fill="#231815" fill-rule="nonzero" group-id="11" node-id="119" stroke="none" target-height="149.20007" target-width="149.19995" target-x="812.10004" target-y="127.49994"></path></g><path d="M 954.40 202.00 C 954.40 219.96 947.27 237.17 934.57 249.87 C 921.87 262.57 904.66 269.70 886.70 269.70 C 868.74 269.70 851.53 262.57 838.83 249.87 C 826.13 237.17 819.00 219.96 819.00 202.00 C 819.00 164.61 849.31 134.30 886.70 134.30 C 924.09 134.30 954.40 164.61 954.40 202.00 Z" fill="#ffffff" fill-rule="nonzero" node-id="122" stroke="none" target-height="135.40002" target-width="135.40002" target-x="819" target-y="134.29999"></path><g node-id="333"><path d="M 986.50 277.40 C 938.10 277.40 898.60 239.30 898.60 192.60 C 898.60 145.90 938.10 107.80 986.50 107.80 C 1034.90 107.80 1074.40 145.90 1074.40 192.60 C 1074.40 239.30 1035.00 277.40 986.50 277.40 Z" fill="#231815" fill-rule="nonzero" group-id="12" node-id="126" stroke="none" target-height="169.60004" target-width="175.79999" target-x="898.60004" target-y="107.79999"></path></g><g node-id="334"><path d="M 986.50 111.30 C 1033.20 111.30 1071.00 147.70 1071.00 192.60 C 1071.00 237.50 1033.20 273.90 986.50 273.90 C 939.80 273.90 902.10 237.50 902.10 192.60 C 902.10 147.70 939.90 111.30 986.50 111.30 M 986.50 104.40 C 936.20 104.40 895.20 143.90 895.20 192.60 C 895.20 241.30 936.20 280.80 986.50 280.80 C 1036.80 280.80 1077.90 241.20 1077.90 192.60 C 1077.90 144.00 1036.90 104.40 986.50 104.40 Z" fill="#231815" fill-rule="nonzero" group-id="13" node-id="131" stroke="none" target-height="176.40002" target-width="182.70001" target-x="895.2" target-y="104.400024"></path></g><path d="M 1070.90 192.50 C 1070.90 237.40 1033.11 273.80 986.50 273.80 C 939.89 273.80 902.10 237.40 902.10 192.50 C 902.10 147.60 939.89 111.20 986.50 111.20 C 1033.11 111.20 1070.90 147.60 1070.90 192.50 Z" fill="#ffffff" fill-rule="nonzero" node-id="134" stroke="none" target-height="162.6" target-width="168.79999" target-x="902.10004" target-y="111.19998"></path><path d="M 1004.70 200.80 C 1004.70 211.35 996.15 219.90 985.60 219.90 C 975.05 219.90 966.50 211.35 966.50 200.80 C 966.50 190.25 975.05 181.70 985.60 181.70 C 996.15 181.70 1004.70 190.25 1004.70 200.80 Z" fill="#99725b" fill-rule="nonzero" node-id="136" stroke="none" target-height="38.200012" target-width="38.19995" target-x="966.5" target-y="181.7"></path><path d="M 1005.40 198.10 C 1005.40 208.65 996.85 217.20 986.30 217.20 C 975.75 217.20 967.20 208.65 967.20 198.10 C 967.20 187.55 975.75 179.00 986.30 179.00 C 996.85 179.00 1005.40 187.55 1005.40 198.10 Z" fill="#5d2b26" fill-rule="nonzero" node-id="138" stroke="none" target-height="38.200012" target-width="38.19995" target-x="967.2" target-y="179"></path><path d="M 1001.60 192.40 C 1001.60 196.82 998.02 200.40 993.60 200.40 C 989.18 200.40 985.60 196.82 985.60 192.40 C 985.60 187.98 989.18 184.40 993.60 184.40 C 998.02 184.40 1001.60 187.98 1001.60 192.40 Z" fill="#ffffff" fill-rule="nonzero" node-id="140" stroke="none" target-height="16" target-width="16" target-x="985.6" target-y="184.4"></path><path d="M 888.70 209.90 C 888.70 215.15 884.45 219.40 879.20 219.40 C 873.95 219.40 869.70 215.15 869.70 209.90 C 869.70 204.65 873.95 200.40 879.20 200.40 C 884.45 200.40 888.70 204.65 888.70 209.90 Z" fill="#99725b" fill-rule="nonzero" node-id="142" stroke="none" target-height="19" target-width="19" target-x="869.7" target-y="200.4"></path><path d="M 889.10 208.60 C 889.10 213.85 884.85 218.10 879.60 218.10 C 874.35 218.10 870.10 213.85 870.10 208.60 C 870.10 203.35 874.35 199.10 879.60 199.10 C 884.85 199.10 889.10 203.35 889.10 208.60 Z" fill="#310903" fill-rule="nonzero" node-id="144" stroke="none" target-height="19" target-width="18.999939" target-x="870.10004" target-y="199.1"></path><path d="M 887.20 205.80 C 887.20 208.01 885.41 209.80 883.20 209.80 C 880.99 209.80 879.20 208.01 879.20 205.80 C 879.20 203.59 880.99 201.80 883.20 201.80 C 885.41 201.80 887.20 203.59 887.20 205.80 Z" fill="#ffffff" fill-rule="nonzero" node-id="146" stroke="none" target-height="8" target-width="8" target-x="879.2" target-y="201.8"></path><g node-id="335"><path d="M 907.20 71.60 L 907.20 100.80 C 900.85 98.68 894.20 97.60 887.50 97.60 C 869.10 97.60 852.40 105.60 840.00 118.80 C 850.40 91.00 875.00 71.50 903.60 71.50 Z" fill="#1b0404" fill-rule="nonzero" group-id="14" node-id="150" stroke="none" target-height="47.30005" target-width="67.20001" target-x="840" target-y="71.5"></path></g><g node-id="336"><path d="M 980.90 51.80 L 980.90 83.30 C 987.93 80.97 995.29 79.79 1002.70 79.80 C 1023.20 79.80 1041.70 88.50 1055.40 102.70 C 1043.80 72.70 1016.60 51.70 984.90 51.70 Z" fill="#1b0404" fill-rule="nonzero" group-id="15" node-id="155" stroke="none" target-height="50.99994" target-width="74.5" target-x="980.9" target-y="51.700073"></path></g><g node-id="337"><path d="M 1220.20 742.30 L 1194.90 742.30 L 1128.00 205.40 C 1125.87 188.51 1113.47 174.71 1096.90 170.80 L 1109.50 169.70 C 1131.29 167.98 1150.59 183.71 1153.30 205.40 Z" fill="#cf803e" fill-rule="nonzero" group-id="16" node-id="160" stroke="none" target-height="574.3191" target-width="123.29993" target-x="1096.9" target-y="167.98096"></path></g><g node-id="338"><path d="M 1606.60 1240.00 C 1532.10 1240.00 1467.30 1186.10 1447.20 1108.20 L 331.70 1108.20 C 311.70 1186.10 246.90 1240.00 172.40 1240.00 C 81.20 1240.00 6.90 1158.80 6.90 1059.00 C 6.90 1001.90 31.40 948.50 72.90 914.30 C 39.30 885.40 19.50 841.30 19.50 794.30 C 19.50 710.20 82.10 641.70 159.00 641.70 C 215.40 641.70 265.20 677.90 287.30 734.20 L 1491.70 734.20 C 1513.80 677.90 1563.60 641.70 1620.00 641.70 C 1696.90 641.70 1759.50 710.20 1759.50 794.30 C 1759.50 841.30 1739.70 885.40 1706.10 914.30 C 1747.60 948.50 1772.10 1001.90 1772.10 1059.00 C 1772.10 1158.80 1697.80 1240.00 1606.60 1240.00 Z" fill="#231815" fill-rule="nonzero" group-id="17" node-id="165" stroke="none" target-height="598.3" target-width="1765.2" target-x="6.9000854" target-y="641.7"></path></g><g node-id="339"><path d="M 1620.00 648.70 C 1693.20 648.70 1752.60 713.90 1752.60 794.30 C 1752.60 844.10 1729.80 888.10 1695.00 914.40 C 1737.30 945.60 1765.10 998.70 1765.10 1059.00 C 1765.10 1155.10 1694.10 1233.10 1606.50 1233.10 C 1532.30 1233.10 1469.90 1177.00 1452.70 1101.30 L 326.30 1101.30 C 309.10 1177.00 246.70 1233.10 172.40 1233.10 C 84.90 1233.10 13.90 1155.10 13.90 1059.00 C 13.90 998.70 41.70 945.60 84.00 914.40 C 49.20 888.10 26.40 844.10 26.40 794.30 C 26.40 713.90 85.80 648.70 159.00 648.70 C 215.20 648.70 263.10 687.00 282.50 741.10 L 1496.50 741.10 C 1515.90 687.00 1563.80 648.70 1620.00 648.70 M 1620.00 634.80 C 1562.20 634.80 1511.00 670.80 1487.10 727.30 L 291.90 727.30 C 268.00 670.80 216.80 634.80 159.00 634.80 C 78.20 634.80 12.50 706.30 12.50 794.30 C 12.50 840.40 30.90 884.10 62.40 914.20 C 23.10 949.70 0.00 1002.60 0.00 1059.00 C 0.00 1162.60 77.40 1247.00 172.40 1247.00 C 248.50 1247.00 314.70 1193.30 337.10 1115.10 L 1441.90 1115.10 C 1464.30 1193.30 1530.50 1247.00 1606.50 1247.00 C 1701.60 1247.00 1779.00 1162.60 1779.00 1059.00 C 1779.00 1002.60 1755.90 949.70 1716.60 914.20 C 1748.10 884.10 1766.50 840.40 1766.50 794.30 C 1766.50 706.30 1700.80 634.80 1620.00 634.80 Z" fill="#231815" fill-rule="nonzero" group-id="18" node-id="170" stroke="none" target-height="612.19995" target-width="1779" target-x="0" target-y="634.80005"></path></g><g node-id="340"><path d="M 1695.00 914.40 C 1729.80 888.10 1752.60 844.10 1752.60 794.30 C 1752.60 713.90 1693.20 648.70 1620.00 648.70 C 1563.80 648.70 1515.90 687.00 1496.50 741.10 L 282.50 741.10 C 263.10 687.00 215.20 648.70 159.00 648.70 C 85.80 648.70 26.40 713.90 26.40 794.30 C 26.40 844.10 49.20 888.10 84.00 914.40 C 41.70 945.60 13.90 998.70 13.90 1059.00 C 13.90 1155.10 84.90 1233.10 172.40 1233.10 C 246.70 1233.10 309.10 1177.00 326.30 1101.30 L 1452.70 1101.30 C 1469.90 1177.00 1532.30 1233.10 1606.60 1233.10 C 1694.10 1233.10 1765.10 1155.10 1765.10 1059.00 C 1765.10 998.70 1737.30 945.60 1695.00 914.40 Z" fill="#d6c774" fill-rule="nonzero" group-id="19" node-id="175" stroke="none" target-height="584.4001" target-width="1751.2001" target-x="13.900024" target-y="648.7"></path></g><g node-id="341"><path d="M 1688.90 902.30 C 1724.92 876.30 1746.18 834.52 1746.00 790.10 C 1746.00 714.90 1687.10 654.00 1614.60 654.00 C 1559.00 654.00 1511.50 689.90 1492.30 740.40 L 289.80 740.40 C 270.60 689.90 223.10 654.00 167.50 654.00 C 95.00 654.00 36.20 714.90 36.20 790.10 C 36.20 836.60 58.80 877.70 93.20 902.30 C 51.30 931.50 23.70 981.10 23.70 1037.30 C 23.70 1127.20 94.10 1200.00 180.80 1200.00 C 254.40 1200.00 316.20 1147.60 333.20 1076.80 L 1448.90 1076.80 C 1466.00 1147.60 1527.70 1200.00 1601.30 1200.00 C 1688.00 1200.00 1758.40 1127.20 1758.40 1037.30 C 1758.40 981.10 1730.80 931.50 1688.90 902.30 Z" fill="#f7eccc" fill-rule="nonzero" group-id="20" node-id="180" stroke="none" target-height="546" target-width="1734.7" target-x="23.700073" target-y="654"></path></g><path d="M 905.30 540.80 L 937.90 622.60 L 972.70 634.10 L 982.60 628.90 L 1003.40 556.60 L 1036.70 430.20 L 1035.10 414.60 L 1016.40 441.10 L 997.10 466.60 L 959.20 502.50 L 905.30 540.80 Z" fill="#7a213d" fill-rule="nonzero" node-id="183" stroke="none" target-height="219.5" target-width="131.39996" target-x="905.3" target-y="414.59998"></path><g node-id="342"><path d="M 929.30 619.70 C 929.30 619.60 928.80 605.40 920.20 582.00 C 916.70 572.70 899.00 544.70 898.90 544.40 L 904.70 540.70 C 905.50 541.90 923.00 569.60 926.70 579.60 C 935.70 604.20 936.20 618.90 936.30 619.50 Z" fill="#5f1913" fill-rule="nonzero" group-id="21" node-id="187" stroke="none" target-height="79" target-width="37.399963" target-x="898.9" target-y="540.7"></path></g><g node-id="343"><path d="M 886.60 645.40 C 889.17 640.64 892.48 636.32 896.40 632.60 C 905.89 623.33 918.54 618.01 931.80 617.70 C 964.20 616.60 976.30 640.70 976.30 640.70 C 976.30 640.70 947.40 678.60 918.10 687.20 C 882.80 697.50 852.70 690.60 844.10 684.80 C 835.50 679.00 840.20 635.30 869.80 630.20 C 899.40 625.10 908.40 646.20 908.40 646.20 Z" fill="#e6866d" fill-rule="nonzero" group-id="22" node-id="192" stroke="none" target-height="80.89996" target-width="140.79999" target-x="835.5" target-y="616.60004"></path></g><g node-id="344"><path d="M 891.80 645.50 L 890.70 645.30 C 888.94 644.68 887.97 642.79 888.50 641.00 C 888.80 640.30 894.10 624.70 921.70 616.90 C 949.30 609.10 978.00 632.60 979.20 633.60 C 979.92 634.18 980.37 635.04 980.45 635.96 C 980.52 636.89 980.22 637.81 979.60 638.50 C 978.33 639.90 976.18 640.08 974.70 638.90 C 974.50 638.70 947.60 616.70 923.60 623.50 C 899.60 630.30 895.20 643.00 895.10 643.10 C 894.66 644.54 893.31 645.52 891.80 645.50 Z" fill="#231815" fill-rule="nonzero" group-id="23" node-id="197" stroke="none" target-height="36.422302" target-width="92.55481" target-x="887.9683" target-y="609.10004"></path></g><g node-id="345"><path d="M 841.60 690.10 C 841.00 688.90 826.70 661.20 845.50 639.00 C 868.80 611.50 898.80 629.30 899.10 629.50 L 895.50 635.40 C 894.50 634.80 870.20 620.60 850.80 643.50 C 835.10 662.10 847.20 685.80 847.70 686.80 Z" fill="#231815" fill-rule="nonzero" group-id="24" node-id="202" stroke="none" target-height="78.60004" target-width="72.400024" target-x="826.7" target-y="611.5"></path></g><g node-id="346"><path d="M 476.60 318.00 C 480.90 397.80 491.80 483.00 535.00 551.50 C 580.50 625.30 678.20 615.10 751.60 596.50 C 819.70 578.40 886.10 549.80 944.40 509.90 C 1017.50 455.30 1064.30 368.90 1078.80 279.50 C 1071.50 361.90 1034.00 440.60 975.20 498.90 C 944.90 528.10 908.20 547.90 871.10 566.70 C 834.00 585.50 795.20 599.40 755.00 609.90 C 677.70 629.80 572.20 637.60 525.90 557.40 C 483.10 485.40 475.60 399.70 476.60 318.00 Z" fill="#231815" fill-rule="nonzero" group-id="25" node-id="207" stroke="none" target-height="358.10004" target-width="603.2001" target-x="475.6" target-y="279.5"></path></g><g node-id="347"><path d="M 809.60 708.30 C 808.16 708.29 806.86 707.43 806.30 706.10 C 803.60 699.30 797.70 682.90 801.40 676.90 C 802.27 675.30 803.89 674.25 805.70 674.10 C 807.20 673.90 809.20 674.50 815.70 676.50 C 836.60 682.90 892.10 700.10 934.90 677.30 C 957.30 665.40 973.20 644.10 982.40 613.90 C 1019.10 492.50 1034.80 408.50 1034.90 407.70 C 1035.07 406.78 1035.60 405.97 1036.37 405.45 C 1037.14 404.92 1038.08 404.72 1039.00 404.90 C 1039.90 405.04 1040.71 405.55 1041.22 406.31 C 1041.73 407.07 1041.91 408.01 1041.70 408.90 C 1041.60 409.80 1025.80 494.10 989.00 615.90 C 979.30 647.90 962.20 670.60 938.20 683.40 C 892.80 707.50 835.30 689.80 813.60 683.10 C 811.10 682.30 808.50 681.50 807.10 681.20 C 806.70 684.50 809.10 694.30 812.80 703.50 C 813.48 705.29 812.59 707.30 810.80 708.00 C 810.43 708.19 810.02 708.29 809.60 708.30 Z" fill="#231815" fill-rule="nonzero" group-id="26" node-id="212" stroke="none" target-height="303.57532" target-width="244.20526" target-x="797.7" target-y="404.72467"></path></g><g node-id="348"><path d="M 465.70 302.40 C 530.70 302.40 638.40 217.10 638.90 185.40 C 639.40 146.40 597.80 113.10 485.50 113.10 C 370.60 113.10 363.30 164.60 364.80 191.60 C 366.30 218.60 406.40 302.40 465.70 302.40 Z" fill="#231815" fill-rule="nonzero" group-id="27" node-id="217" stroke="none" target-height="189.29993" target-width="276.10004" target-x="363.3" target-y="113.1001"></path></g><g node-id="349"><path d="M 465.70 309.30 C 401.60 309.30 359.60 220.30 357.90 192.00 C 356.60 169.80 362.40 152.30 375.60 138.40 C 395.70 117.00 432.70 106.20 485.50 106.20 C 555.80 106.20 604.00 118.80 628.60 143.70 C 640.00 155.40 646.00 169.80 645.80 185.50 C 645.30 223.80 530.30 309.30 465.70 309.30 Z M 485.50 120.00 C 436.70 120.00 403.10 129.40 385.70 147.90 C 375.30 158.90 370.70 173.10 371.80 191.20 C 373.10 213.50 409.80 295.40 465.70 295.40 C 530.40 295.40 631.60 211.00 631.90 185.30 C 632.10 173.20 627.60 162.50 618.70 153.50 C 603.60 138.20 568.30 120.00 485.50 120.00 Z" fill="#231815" fill-rule="nonzero" group-id="28" node-id="222" stroke="none" target-height="203.10004" target-width="289.39996" target-x="356.60004" target-y="106.20001"></path></g><g node-id="350"><path d="M 465.70 302.40 C 530.70 302.40 638.40 217.10 638.90 185.40 C 639.40 146.40 597.80 113.10 485.50 113.10 C 370.60 113.10 363.30 164.60 364.80 191.60 C 366.30 218.60 406.40 302.40 465.70 302.40 Z" fill="#303131" fill-rule="nonzero" group-id="29" node-id="227" stroke="none" target-height="189.29993" target-width="276.10004" target-x="363.3" target-y="113.1001"></path></g><path d="M 553.10 169.20 C 553.10 189.86 523.28 206.60 486.50 206.60 C 449.72 206.60 419.90 189.86 419.90 169.20 C 419.90 148.54 449.72 131.80 486.50 131.80 C 523.28 131.80 553.10 148.54 553.10 169.20 Z" fill="#ffffff" fill-rule="nonzero" node-id="230" stroke="none" target-height="74.80002" target-width="133.19998" target-x="419.9" target-y="131.79999"></path><g node-id="351"><path d="M 486.50 210.20 C 447.30 210.20 416.50 192.20 416.50 169.20 C 416.50 146.20 447.30 128.30 486.50 128.30 C 525.70 128.30 556.50 146.30 556.50 169.20 C 556.50 192.10 525.80 210.20 486.50 210.20 Z M 486.50 135.30 C 452.30 135.30 423.40 150.80 423.40 169.20 C 423.40 187.60 452.30 203.20 486.50 203.20 C 520.70 203.20 549.60 187.70 549.60 169.20 C 549.60 150.70 520.70 135.30 486.50 135.30 Z" fill="#231815" fill-rule="nonzero" group-id="30" node-id="234" stroke="none" target-height="81.8999" target-width="139.99997" target-x="416.50003" target-y="128.30011"></path></g><g node-id="352"><path d="M 1104.20 305.10 C 1102.70 293.50 1093.50 284.70 1082.30 282.70 C 1072.60 280.90 1058.10 281.00 1048.20 280.20 L 1048.00 279.50 C 1068.30 266.80 1105.60 277.90 1104.90 305.10 Z" fill="#231815" fill-rule="nonzero" group-id="31" node-id="239" stroke="none" target-height="38.299988" target-width="57.599976" target-x="1048" target-y="266.80005"></path></g><g node-id="353"><path d="M 653.80 663.30 C 575.40 662.30 529.00 719.20 529.00 788.10 C 529.00 811.08 547.62 829.70 570.60 829.70 C 593.58 829.70 612.20 811.08 612.20 788.10 C 612.20 811.08 630.82 829.70 653.80 829.70 C 676.77 829.70 695.40 811.08 695.40 788.10 C 695.40 811.08 714.02 829.70 737.00 829.70 C 759.98 829.70 778.60 811.08 778.60 788.10 C 778.60 719.20 739.20 663.30 653.80 663.30 Z" fill="#231815" fill-rule="nonzero" group-id="32" node-id="244" stroke="none" target-height="167.39996" target-width="249.60004" target-x="529" target-y="662.30005"></path></g><g node-id="354"><path d="M 737.00 836.60 C 719.97 836.59 704.19 827.68 695.40 813.10 C 686.61 827.68 670.83 836.59 653.80 836.60 C 636.77 836.59 620.99 827.68 612.20 813.10 C 603.41 827.68 587.63 836.59 570.60 836.60 C 543.81 836.60 522.10 814.89 522.10 788.10 C 522.10 750.00 535.50 715.80 560.00 691.70 C 584.50 667.60 616.30 656.10 653.90 656.40 C 735.10 656.40 785.50 706.90 785.50 788.10 C 785.50 814.89 763.79 836.60 737.00 836.60 Z M 688.50 788.10 L 702.30 788.10 C 702.36 807.24 717.86 822.75 737.00 822.80 C 756.14 822.75 771.65 807.24 771.70 788.10 C 771.70 714.30 727.60 670.30 653.80 670.20 L 653.70 670.20 C 619.70 669.80 590.90 680.60 569.70 701.60 C 548.50 722.60 536.00 753.80 536.00 788.10 C 536.00 807.23 551.47 822.74 570.60 822.80 C 589.74 822.75 605.25 807.24 605.30 788.10 L 619.10 788.10 C 619.15 807.24 634.66 822.75 653.80 822.80 C 672.94 822.75 688.45 807.24 688.50 788.10 Z" fill="#231815" fill-rule="nonzero" group-id="33" node-id="249" stroke="none" target-height="180.50006" target-width="263.40002" target-x="522.1" target-y="656.1"></path></g><g node-id="355"><path d="M 653.80 663.30 C 575.40 662.30 529.00 719.20 529.00 788.10 C 529.00 811.08 547.62 829.70 570.60 829.70 C 593.58 829.70 612.20 811.08 612.20 788.10 C 612.20 811.08 630.82 829.70 653.80 829.70 C 676.77 829.70 695.40 811.08 695.40 788.10 C 695.40 811.08 714.02 829.70 737.00 829.70 C 759.98 829.70 778.60 811.08 778.60 788.10 C 778.60 719.20 739.20 663.40 653.80 663.30 Z" fill="#e08a44" fill-rule="nonzero" group-id="34" node-id="254" stroke="none" target-height="167.39996" target-width="249.60004" target-x="529" target-y="662.30005"></path></g><g node-id="356"><path d="M 778.60 788.10 C 778.60 811.08 759.98 829.70 737.00 829.70 C 714.02 829.70 695.40 811.08 695.40 788.10 C 695.40 811.08 676.77 829.70 653.80 829.70 C 630.82 829.70 612.20 811.08 612.20 788.10 C 612.20 811.08 593.58 829.70 570.60 829.70 C 547.62 829.70 529.00 811.08 529.00 788.10 C 529.00 785.70 529.10 783.20 529.20 780.90 C 531.40 802.10 549.28 818.21 570.60 818.20 C 581.64 818.23 592.24 813.85 600.05 806.05 C 607.85 798.24 612.23 787.64 612.20 776.60 C 612.20 799.58 630.82 818.20 653.80 818.20 C 664.84 818.23 675.44 813.85 683.25 806.05 C 691.05 798.24 695.43 787.64 695.40 776.60 C 695.40 799.58 714.02 818.20 737.00 818.20 C 758.32 818.21 776.20 802.10 778.40 780.90 C 778.60 783.30 778.60 785.70 778.60 788.10 Z" fill="#d1813f" fill-rule="nonzero" group-id="35" node-id="259" stroke="none" target-height="53.099976" target-width="249.60004" target-x="529" target-y="776.60004"></path></g><g node-id="357"><path d="M 612.40 808.60 C 611.48 808.63 610.59 808.28 609.93 807.64 C 609.27 807.00 608.90 806.12 608.90 805.20 L 608.90 756.30 C 608.90 754.37 610.47 752.80 612.40 752.80 C 614.29 752.85 615.80 754.41 615.80 756.30 L 615.80 805.20 C 615.80 807.08 614.28 808.60 612.40 808.60 Z" fill="#231815" fill-rule="nonzero" group-id="36" node-id="264" stroke="none" target-height="55.827026" target-width="6.901123" target-x="608.89966" target-y="752.80005"></path></g><g node-id="358"><path d="M 695.00 808.60 C 693.12 808.60 691.60 807.08 691.60 805.20 L 691.60 756.30 C 691.60 754.41 693.11 752.85 695.00 752.80 C 696.93 752.80 698.50 754.37 698.50 756.30 L 698.50 805.20 C 698.45 807.09 696.89 808.60 695.00 808.60 Z" fill="#231815" fill-rule="nonzero" group-id="37" node-id="269" stroke="none" target-height="55.80078" target-width="6.900757" target-x="691.59924" target-y="752.80005"></path></g><g node-id="359"><path d="M 1134.30 663.30 C 1055.90 662.30 1009.50 719.20 1009.50 788.10 C 1009.50 811.08 1028.12 829.70 1051.10 829.70 C 1074.08 829.70 1092.70 811.08 1092.70 788.10 C 1092.70 811.08 1111.33 829.70 1134.30 829.70 C 1157.28 829.70 1175.90 811.08 1175.90 788.10 C 1175.90 811.08 1194.52 829.70 1217.50 829.70 C 1240.48 829.70 1259.10 811.08 1259.10 788.10 C 1259.10 719.20 1219.70 663.30 1134.30 663.30 Z" fill="#231815" fill-rule="nonzero" group-id="38" node-id="274" stroke="none" target-height="167.39996" target-width="249.59998" target-x="1009.5" target-y="662.30005"></path></g><g node-id="360"><path d="M 1217.50 836.60 C 1200.46 836.63 1184.66 827.71 1175.90 813.10 C 1167.11 827.68 1151.33 836.59 1134.30 836.60 C 1117.26 836.63 1101.46 827.71 1092.70 813.10 C 1083.91 827.68 1068.13 836.59 1051.10 836.60 C 1024.30 836.60 1002.56 814.90 1002.50 788.10 C 1002.50 750.00 1016.00 715.80 1040.40 691.70 C 1064.80 667.60 1096.80 656.10 1134.30 656.40 C 1215.50 656.40 1266.00 706.90 1266.00 788.10 C 1266.00 814.89 1244.29 836.60 1217.50 836.60 Z M 1168.90 788.10 L 1182.80 788.10 C 1182.86 807.24 1198.36 822.75 1217.50 822.80 C 1236.63 822.74 1252.10 807.23 1252.10 788.10 C 1252.10 714.30 1208.10 670.30 1134.30 670.20 L 1134.20 670.20 C 1100.20 669.80 1071.30 680.60 1050.20 701.60 C 1029.10 722.60 1016.40 753.80 1016.40 788.10 C 1016.45 807.24 1031.96 822.75 1051.10 822.80 C 1070.23 822.74 1085.70 807.23 1085.70 788.10 L 1099.60 788.10 C 1099.65 807.24 1115.16 822.75 1134.30 822.80 C 1153.43 822.74 1168.90 807.23 1168.90 788.10 Z" fill="#231815" fill-rule="nonzero" group-id="39" node-id="279" stroke="none" target-height="180.53394" target-width="263.5" target-x="1002.5" target-y="656.1"></path></g><g node-id="361"><path d="M 1134.30 663.30 C 1055.90 662.30 1009.50 719.20 1009.50 788.10 C 1009.50 811.08 1028.12 829.70 1051.10 829.70 C 1074.08 829.70 1092.70 811.08 1092.70 788.10 C 1092.70 811.08 1111.33 829.70 1134.30 829.70 C 1145.32 829.70 1155.89 825.31 1163.68 817.51 C 1171.47 809.71 1175.83 799.12 1175.80 788.10 C 1175.80 811.08 1194.42 829.70 1217.40 829.70 C 1240.38 829.70 1259.00 811.08 1259.00 788.10 C 1259.00 719.20 1219.70 663.40 1134.30 663.30 Z" fill="#e08a44" fill-rule="nonzero" group-id="40" node-id="284" stroke="none" target-height="167.40002" target-width="249.5" target-x="1009.5" target-y="662.30005"></path></g><g node-id="362"><path d="M 1259.10 788.10 C 1259.10 811.08 1240.48 829.70 1217.50 829.70 C 1194.52 829.70 1175.90 811.08 1175.90 788.10 C 1175.90 811.08 1157.28 829.70 1134.30 829.70 C 1111.33 829.70 1092.70 811.08 1092.70 788.10 C 1092.70 811.08 1074.08 829.70 1051.10 829.70 C 1028.12 829.70 1009.50 811.08 1009.50 788.10 C 1009.50 785.70 1009.60 783.20 1009.70 780.90 C 1011.90 802.10 1029.78 818.21 1051.10 818.20 C 1074.08 818.20 1092.70 799.58 1092.70 776.60 C 1092.67 787.64 1097.05 798.24 1104.86 806.05 C 1112.66 813.85 1123.26 818.23 1134.30 818.20 C 1157.28 818.20 1175.90 799.58 1175.90 776.60 C 1175.87 787.64 1180.25 798.24 1188.05 806.05 C 1195.86 813.85 1206.46 818.23 1217.50 818.20 C 1238.82 818.21 1256.70 802.10 1258.90 780.90 C 1259.00 783.30 1259.10 785.70 1259.10 788.10 Z" fill="#d1813f" fill-rule="nonzero" group-id="41" node-id="289" stroke="none" target-height="53.099976" target-width="249.59998" target-x="1009.5" target-y="776.60004"></path></g><g node-id="363"><path d="M 1092.80 808.60 C 1090.91 808.60 1089.35 807.09 1089.30 805.20 L 1089.30 756.30 C 1089.30 754.37 1090.87 752.80 1092.80 752.80 C 1094.73 752.80 1096.30 754.37 1096.30 756.30 L 1096.30 805.20 C 1096.25 807.09 1094.69 808.60 1092.80 808.60 Z" fill="#231815" fill-rule="nonzero" group-id="42" node-id="294" stroke="none" target-height="55.80078" target-width="7" target-x="1089.3" target-y="752.80005"></path></g><g node-id="364"><path d="M 1175.50 808.60 C 1173.61 808.60 1172.05 807.09 1172.00 805.20 L 1172.00 756.30 C 1172.00 754.37 1173.57 752.80 1175.50 752.80 C 1177.39 752.85 1178.90 754.41 1178.90 756.30 L 1178.90 805.20 C 1178.90 807.08 1177.38 808.60 1175.50 808.60 Z" fill="#231815" fill-rule="nonzero" group-id="43" node-id="299" stroke="none" target-height="55.80078" target-width="6.900757" target-x="1172" target-y="752.80005"></path></g><path d="M 632.60 370.50 C 632.60 379.67 626.06 387.10 618.00 387.10 C 609.94 387.10 603.40 379.67 603.40 370.50 C 603.40 361.33 609.94 353.90 618.00 353.90 C 626.06 353.90 632.60 361.33 632.60 370.50 Z" fill="#d3b462" fill-rule="nonzero" node-id="302" stroke="none" target-height="33.19998" target-width="29.199951" target-x="603.4" target-y="353.90002"></path><g node-id="365"><path d="M 618.00 390.60 C 608.00 390.60 599.90 381.60 599.90 370.50 C 599.90 359.40 608.00 350.50 618.00 350.50 C 628.00 350.50 636.10 359.50 636.10 370.50 C 636.10 381.50 628.00 390.60 618.00 390.60 Z M 618.00 357.40 C 611.90 357.40 606.90 363.30 606.90 370.50 C 606.90 377.70 611.90 383.60 618.00 383.60 C 624.10 383.60 629.20 377.80 629.20 370.50 C 629.20 363.20 624.20 357.40 618.00 357.40 Z" fill="#40220f" fill-rule="nonzero" group-id="44" node-id="306" stroke="none" target-height="40.100037" target-width="36.19995" target-x="599.9" target-y="350.5"></path></g><path d="M 673.20 315.90 C 673.20 318.84 672.07 321.67 670.07 323.75 C 668.06 325.83 665.34 327.00 662.50 327.00 C 659.66 327.00 656.94 325.83 654.93 323.75 C 652.93 321.67 651.80 318.84 651.80 315.90 C 651.80 312.96 652.93 310.13 654.93 308.05 C 656.94 305.97 659.66 304.80 662.50 304.80 C 665.34 304.80 668.06 305.97 670.07 308.05 C 672.07 310.13 673.20 312.96 673.20 315.90 Z" fill="#d3b462" fill-rule="nonzero" node-id="309" stroke="none" target-height="22.200012" target-width="21.400024" target-x="651.8" target-y="304.8"></path><g node-id="366"><path d="M 662.50 330.50 C 658.67 330.47 655.01 328.91 652.35 326.17 C 649.68 323.43 648.22 319.73 648.30 315.90 C 648.25 312.09 649.72 308.42 652.38 305.69 C 655.05 302.97 658.69 301.43 662.50 301.40 C 670.41 301.51 676.76 307.99 676.70 315.90 C 676.75 319.72 675.29 323.40 672.62 326.14 C 669.96 328.88 666.32 330.45 662.50 330.50 Z M 662.50 308.30 C 658.40 308.41 655.14 311.80 655.20 315.90 C 655.15 317.89 655.89 319.82 657.25 321.26 C 658.62 322.71 660.51 323.55 662.50 323.60 C 664.48 323.55 666.36 322.70 667.71 321.26 C 669.06 319.81 669.78 317.88 669.70 315.90 C 669.75 313.94 669.03 312.03 667.67 310.61 C 666.32 309.18 664.46 308.35 662.50 308.30 Z" fill="#40220f" fill-rule="nonzero" group-id="45" node-id="313" stroke="none" target-height="29.099976" target-width="28.536133" target-x="648.2196" target-y="301.40002"></path></g><path d="M 699.30 385.30 C 699.30 388.24 698.17 391.07 696.17 393.15 C 694.16 395.23 691.44 396.40 688.60 396.40 C 685.76 396.40 683.04 395.23 681.03 393.15 C 679.03 391.07 677.90 388.24 677.90 385.30 C 677.90 382.36 679.03 379.53 681.03 377.45 C 683.04 375.37 685.76 374.20 688.60 374.20 C 691.44 374.20 694.16 375.37 696.17 377.45 C 698.17 379.53 699.30 382.36 699.30 385.30 Z" fill="#d3b462" fill-rule="nonzero" node-id="316" stroke="none" target-height="22.200012" target-width="21.400024" target-x="677.89996" target-y="374.19998"></path><g node-id="367"><path d="M 688.60 399.90 C 680.69 399.79 674.34 393.31 674.40 385.40 C 674.35 381.58 675.81 377.90 678.48 375.16 C 681.14 372.42 684.78 370.85 688.60 370.80 C 692.42 370.85 696.06 372.42 698.72 375.16 C 701.39 377.90 702.85 381.58 702.80 385.40 C 702.86 393.31 696.51 399.79 688.60 399.90 Z M 688.60 377.70 C 686.61 377.75 684.72 378.59 683.35 380.04 C 681.99 381.48 681.25 383.41 681.30 385.40 C 681.24 389.50 684.50 392.89 688.60 393.00 C 692.70 392.89 695.96 389.50 695.90 385.40 C 695.95 383.41 695.21 381.48 693.85 380.04 C 692.48 378.59 690.59 377.75 688.60 377.70 Z" fill="#40220f" fill-rule="nonzero" group-id="46" node-id="320" stroke="none" target-height="29.099976" target-width="28.511414" target-x="674.3443" target-y="370.80005"></path></g></svg>